<svg version="1.1" preserveAspectRatio="none" xmlns="http://www.w3.org/2000/svg" width="500" height="500" viewBox="0 0 500 500"><rect width="100%" height="100%" fill="#012B28" fill-opacity="1"/><svg viewBox="255.1797 203.6367 479.8717 182.0018" width="333" height="126.29750702114754" x="83.5px" y="186.8512px" xmlns="http://www.w3.org/2000/svg" xmlns:xlink="http://www.w3.org/1999/xlink" preserveAspectRatio="none"><defs></defs><style>.companyName {fill:#EBB42C;fill-opacity:1;}.icon2 {fill:#E7240E;fill-opacity:1;}.icon3 {fill:#B47049;fill-opacity:1;}.icon3-str {stroke:#B47049;stroke-opacity:1;}</style><g opacity="1" transform="rotate(0 255.1797 363.6385)">
<svg width="479.8717" height="22" x="255.1797" y="363.6385" version="1.1" preserveAspectRatio="none" viewBox="4.8 -28.48 631.6800000000001 28.96">
  <g transform="matrix(1 0 0 1 0 0)" class="companyName"><path id="id-D6z1nYkh15" d="M4.80-28L4.80 0L14.84 0Q17.52 0 19.36-0.70Q21.20-1.40 22.32-2.52Q23.44-3.64 23.94-5.06Q24.44-6.48 24.44-7.92L24.44-7.92Q24.44-10.20 23.46-11.56Q22.48-12.92 21.12-13.64Q19.76-14.36 18.32-14.60Q16.88-14.84 16-14.88L16-14.88L16-15.04Q17.40-15.04 18.64-15.58Q19.88-16.12 20.82-16.98Q21.76-17.84 22.32-18.98Q22.88-20.12 22.88-21.40L22.88-21.40Q22.88-22.52 22.40-23.68Q21.92-24.84 20.94-25.80Q19.96-26.76 18.42-27.38Q16.88-28 14.80-28L14.80-28L4.80-28ZM14.24-1.76L8.44-1.76L8.44-14L12.84-14Q14.80-14 16.24-13.48Q17.68-12.96 18.62-12.08Q19.56-11.20 20.02-10.04Q20.48-8.88 20.48-7.60L20.48-7.60Q20.48-6.20 19.98-5.12Q19.48-4.04 18.64-3.28Q17.80-2.52 16.66-2.14Q15.52-1.76 14.24-1.76L14.24-1.76ZM13.24-15.76L8.44-15.76L8.44-26.24L13.32-26.24Q14.88-26.24 15.98-25.80Q17.08-25.36 17.78-24.64Q18.48-23.92 18.80-23Q19.12-22.08 19.12-21.16L19.12-21.16Q19.12-20 18.66-19Q18.20-18 17.38-17.28Q16.56-16.56 15.50-16.16Q14.44-15.76 13.24-15.76L13.24-15.76Z M44.44-14L44.44-14Q44.44-11.76 45.30-9.22Q46.16-6.68 48-4.52Q49.84-2.36 52.68-0.94Q55.52 0.48 59.48 0.48L59.48 0.48Q62.16 0.48 64.34-0.18Q66.52-0.84 68.26-1.96Q70-3.08 71.28-4.54Q72.56-6 73.38-7.62Q74.20-9.24 74.62-10.88Q75.04-12.52 75.04-14L75.04-14Q75.04-16.24 74.12-18.78Q73.20-21.32 71.28-23.48Q69.36-25.64 66.42-27.06Q63.48-28.48 59.48-28.48L59.48-28.48Q55.52-28.48 52.68-27.08Q49.84-25.68 48-23.54Q46.16-21.40 45.30-18.84Q44.44-16.28 44.44-14ZM48.36-14L48.36-14Q48.36-16.80 49.22-19.14Q50.08-21.48 51.58-23.16Q53.08-24.84 55.12-25.78Q57.16-26.72 59.56-26.72L59.56-26.72Q61.92-26.72 64.02-25.78Q66.12-24.84 67.70-23.16Q69.28-21.48 70.20-19.14Q71.12-16.80 71.12-14L71.12-14Q71.12-11.20 70.20-8.86Q69.28-6.52 67.70-4.84Q66.12-3.16 64.02-2.22Q61.92-1.28 59.56-1.28L59.56-1.28Q57.16-1.28 55.12-2.22Q53.08-3.16 51.58-4.84Q50.08-6.52 49.22-8.86Q48.36-11.20 48.36-14Z M122.24-28L120.40-28L120.40-6.60L120.24-6.60L98.04-28.48L97.84-28.48L97.84 0L99.68 0L99.68-21.40L99.84-21.40L122.04 0.48L122.24 0.48L122.24-28Z M165.92-28L147.84-28L147.84 0L165.92 0L165.92-2.20L151.48-2.20L151.48-13.92L163.88-13.92L163.88-15.76L151.48-15.76L151.48-25.80L165.92-25.80L165.92-28Z M187.32-7.08L184.60-7.08Q184.68-5.36 185.50-3.96Q186.32-2.56 187.74-1.58Q189.16-0.60 191.08-0.06Q193 0.48 195.28 0.48L195.28 0.48Q197.60 0.48 199.46-0.08Q201.32-0.64 202.64-1.68Q203.96-2.72 204.68-4.20Q205.40-5.68 205.40-7.48L205.40-7.48Q205.40-9.96 204.16-11.54Q202.92-13.12 201.06-14.18Q199.20-15.24 197.02-15.96Q194.84-16.68 192.98-17.48Q191.12-18.28 189.88-19.32Q188.64-20.36 188.64-22.08L188.64-22.08Q188.64-23.04 189.06-23.88Q189.48-24.72 190.30-25.34Q191.12-25.96 192.32-26.34Q193.52-26.72 195.08-26.72L195.08-26.72Q197.68-26.72 199.50-25.62Q201.32-24.52 201.64-22.16L201.64-22.16L204.36-22.16Q204.12-23.64 203.28-24.82Q202.44-26 201.16-26.82Q199.88-27.64 198.26-28.06Q196.64-28.48 194.88-28.48L194.88-28.48Q193.04-28.48 191.38-28Q189.72-27.52 188.46-26.60Q187.20-25.68 186.46-24.28Q185.72-22.88 185.72-21.08L185.72-21.08Q185.72-18.72 186.92-17.28Q188.12-15.84 189.94-14.88Q191.76-13.92 193.88-13.24Q196-12.56 197.82-11.70Q199.64-10.84 200.84-9.60Q202.04-8.36 202.04-6.28L202.04-6.28Q202.04-3.68 200.14-2.48Q198.24-1.28 195.08-1.28L195.08-1.28Q192.56-1.28 191.04-1.94Q189.52-2.60 188.72-3.52Q187.92-4.44 187.64-5.42Q187.36-6.40 187.32-7.08L187.32-7.08Z M277-28L258.92-28L258.92 0L262.56 0L262.56-13.92L274.96-13.92L274.96-15.76L262.56-15.76L262.56-25.80L277-25.80L277-28Z M296.20-14L296.20-14Q296.20-11.76 297.06-9.22Q297.92-6.68 299.76-4.52Q301.60-2.36 304.44-0.94Q307.28 0.48 311.24 0.48L311.24 0.48Q313.92 0.48 316.10-0.18Q318.28-0.84 320.02-1.96Q321.76-3.08 323.04-4.54Q324.32-6 325.14-7.62Q325.96-9.24 326.38-10.88Q326.80-12.52 326.80-14L326.80-14Q326.80-16.24 325.88-18.78Q324.96-21.32 323.04-23.48Q321.12-25.64 318.18-27.06Q315.24-28.48 311.24-28.48L311.24-28.48Q307.28-28.48 304.44-27.08Q301.60-25.68 299.76-23.54Q297.92-21.40 297.06-18.84Q296.20-16.28 296.20-14ZM300.12-14L300.12-14Q300.12-16.80 300.98-19.14Q301.84-21.48 303.34-23.16Q304.84-24.84 306.88-25.78Q308.92-26.72 311.32-26.72L311.32-26.72Q313.68-26.72 315.78-25.78Q317.88-24.84 319.46-23.16Q321.04-21.48 321.96-19.14Q322.88-16.80 322.88-14L322.88-14Q322.88-11.20 321.96-8.86Q321.04-6.52 319.46-4.84Q317.88-3.16 315.78-2.22Q313.68-1.28 311.32-1.28L311.32-1.28Q308.92-1.28 306.88-2.22Q304.84-3.16 303.34-4.84Q301.84-6.52 300.98-8.86Q300.12-11.20 300.12-14Z M358.68-28L349.60-28L349.60 0L353.24 0L353.24-12.36L355-12.36Q356.12-12.36 356.86-12.16Q357.60-11.96 358.20-11.48Q358.80-11 359.32-10.24Q359.84-9.48 360.56-8.36L360.56-8.36L363.72-3.68Q364.32-2.76 364.90-2Q365.48-1.24 366.16-0.70Q366.84-0.16 367.70 0.16Q368.56 0.48 369.76 0.48L369.76 0.48Q370.64 0.48 371.20 0.40Q371.76 0.32 372.32 0L372.32 0L372.32-1.48Q372.12-1.44 371.92-1.42Q371.72-1.40 371.52-1.40L371.52-1.40Q370.68-1.40 370.04-1.64Q369.40-1.88 368.84-2.34Q368.28-2.80 367.76-3.46Q367.24-4.12 366.68-4.96L366.68-4.96Q365-7.40 364.08-8.86Q363.16-10.32 362.62-11.12Q362.08-11.92 361.74-12.28Q361.40-12.64 360.92-12.88L360.92-12.88L360.52-13.08L360.52-13.24Q362.44-13.36 363.82-14.08Q365.20-14.80 366.08-15.88Q366.96-16.96 367.36-18.22Q367.76-19.48 367.76-20.68L367.76-20.68Q367.76-21.76 367.34-23.04Q366.92-24.32 365.90-25.42Q364.88-26.52 363.12-27.26Q361.36-28 358.68-28L358.68-28ZM353.24-14.16L353.24-26.24L357.28-26.24Q358.80-26.24 360.02-25.80Q361.24-25.36 362.12-24.58Q363-23.80 363.46-22.72Q363.92-21.64 363.92-20.36L363.92-20.36Q363.92-19.28 363.50-18.18Q363.08-17.08 362.24-16.18Q361.40-15.28 360.18-14.72Q358.96-14.16 357.36-14.16L357.36-14.16L353.24-14.16Z M427.96 0L427.96-11.68Q429-11.40 430.20-11.22Q431.40-11.04 432.84-11.04L432.84-11.04Q435.28-11.04 437.16-11.72Q439.04-12.40 440.30-13.58Q441.56-14.76 442.20-16.30Q442.84-17.84 442.84-19.60L442.84-19.60Q442.84-21.28 442.28-22.82Q441.72-24.36 440.58-25.50Q439.44-26.64 437.72-27.32Q436-28 433.68-28L433.68-28L424.32-28L424.32 0L427.96 0ZM427.96-13.32L427.96-26.24L432.16-26.24Q433.84-26.24 435.12-25.64Q436.40-25.04 437.24-24.06Q438.08-23.08 438.50-21.86Q438.92-20.64 438.92-19.44L438.92-19.44Q438.92-18.28 438.54-17.10Q438.16-15.92 437.32-14.96Q436.48-14 435.20-13.40Q433.92-12.80 432.12-12.80L432.12-12.80Q430.88-12.80 429.84-12.90Q428.80-13 427.96-13.32L427.96-13.32Z M462.04-14L462.04-14Q462.04-11.76 462.90-9.22Q463.76-6.68 465.60-4.52Q467.44-2.36 470.28-0.94Q473.12 0.48 477.08 0.48L477.08 0.48Q479.76 0.48 481.94-0.18Q484.12-0.84 485.86-1.96Q487.60-3.08 488.88-4.54Q490.16-6 490.98-7.62Q491.80-9.24 492.22-10.88Q492.64-12.52 492.64-14L492.64-14Q492.64-16.24 491.72-18.78Q490.80-21.32 488.88-23.48Q486.96-25.64 484.02-27.06Q481.08-28.48 477.08-28.48L477.08-28.48Q473.12-28.48 470.28-27.08Q467.44-25.68 465.60-23.54Q463.76-21.40 462.90-18.84Q462.04-16.28 462.04-14ZM465.96-14L465.96-14Q465.96-16.80 466.82-19.14Q467.68-21.48 469.18-23.16Q470.68-24.84 472.72-25.78Q474.76-26.72 477.16-26.72L477.16-26.72Q479.52-26.72 481.62-25.78Q483.72-24.84 485.30-23.16Q486.88-21.48 487.80-19.14Q488.72-16.80 488.72-14L488.72-14Q488.72-11.20 487.80-8.86Q486.88-6.52 485.30-4.84Q483.72-3.16 481.62-2.22Q479.52-1.28 477.16-1.28L477.16-1.28Q474.76-1.28 472.72-2.22Q470.68-3.16 469.18-4.84Q467.68-6.52 466.82-8.86Q465.96-11.20 465.96-14Z M515.52-28L511.84-28L521.76 0L524.16 0L531.80-21.88L532-21.88L539.40 0L541.76 0L551.68-28L549.84-28L541.56-4.64L541.40-4.64L533.60-28L531.88-28L523.92-4.76L523.76-4.76L515.52-28Z M591.76-28L573.68-28L573.68 0L591.76 0L591.76-2.20L577.32-2.20L577.32-13.92L589.72-13.92L589.72-15.76L577.32-15.76L577.32-25.80L591.76-25.80L591.76-28Z M622.84-28L613.76-28L613.76 0L617.40 0L617.40-12.36L619.16-12.36Q620.28-12.36 621.02-12.16Q621.76-11.96 622.36-11.48Q622.96-11 623.48-10.24Q624-9.48 624.72-8.36L624.72-8.36L627.88-3.68Q628.48-2.76 629.06-2Q629.64-1.24 630.32-0.70Q631-0.16 631.86 0.16Q632.72 0.48 633.92 0.48L633.92 0.48Q634.80 0.48 635.36 0.40Q635.92 0.32 636.48 0L636.48 0L636.48-1.48Q636.28-1.44 636.08-1.42Q635.88-1.40 635.68-1.40L635.68-1.40Q634.84-1.40 634.20-1.64Q633.56-1.88 633-2.34Q632.44-2.80 631.92-3.46Q631.40-4.12 630.84-4.96L630.84-4.96Q629.16-7.40 628.24-8.86Q627.32-10.32 626.78-11.12Q626.24-11.92 625.90-12.28Q625.56-12.64 625.08-12.88L625.08-12.88L624.68-13.08L624.68-13.24Q626.60-13.36 627.98-14.08Q629.36-14.80 630.24-15.88Q631.12-16.96 631.52-18.22Q631.92-19.48 631.92-20.68L631.92-20.68Q631.92-21.76 631.50-23.04Q631.08-24.32 630.06-25.42Q629.04-26.52 627.28-27.26Q625.52-28 622.84-28L622.84-28ZM617.40-14.16L617.40-26.24L621.44-26.24Q622.96-26.24 624.18-25.80Q625.40-25.36 626.28-24.58Q627.16-23.80 627.62-22.72Q628.08-21.64 628.08-20.36L628.08-20.36Q628.08-19.28 627.66-18.18Q627.24-17.08 626.40-16.18Q625.56-15.28 624.34-14.72Q623.12-14.16 621.52-14.16L621.52-14.16L617.40-14.16Z"/></g>
</svg>
</g><g opacity="1" transform="rotate(0 445.1156 203.6367)">
<svg width="100" height="100.0018" x="445.1156" y="203.6367" version="1.1" preserveAspectRatio="none" viewBox="41.499942779541016 41.499935150146484 117.00010681152344 117.00213623046875">
  <g transform="matrix(1 0 0 1 0 0)"><g><path d="M142.154 109.894c-3.19 0-6.241.911-8.857 2.598L120.806 100l12.491-12.491a16.25 16.25 0 0 0 8.857 2.598 16.23 16.23 0 0 0 11.555-4.787 16.23 16.23 0 0 0 4.791-11.561 16.23 16.23 0 0 0-4.787-11.555 16.21 16.21 0 0 0-11.14-4.78 16.357 16.357 0 0 0-4.774-11.136 16.25 16.25 0 0 0-11.561-4.787 16.239 16.239 0 0 0-11.557 4.785 16.243 16.243 0 0 0-4.789 11.561c0 3.19.909 6.24 2.596 8.855L100 79.194 87.507 66.699c4.076-6.329 3.347-14.877-2.187-20.41A16.24 16.24 0 0 0 73.76 41.5a16.23 16.23 0 0 0-11.557 4.789c-3 3-4.671 7.007-4.778 11.136a16.209 16.209 0 0 0-11.134 4.776c-6.375 6.374-6.375 16.744-.004 23.118a16.239 16.239 0 0 0 11.559 4.789c3.192 0 6.241-.909 8.857-2.598l12.493 12.493-12.493 12.491a16.239 16.239 0 0 0-8.857-2.598 16.247 16.247 0 0 0-11.559 4.789 16.235 16.235 0 0 0-4.787 11.557c0 4.366 1.701 8.474 4.787 11.559a16.236 16.236 0 0 0 11.138 4.78 16.368 16.368 0 0 0 4.776 11.134 16.249 16.249 0 0 0 11.559 4.787c4.366 0 8.472-1.701 11.559-4.787 5.535-5.535 6.263-14.083 2.187-20.412L100 120.806l12.494 12.494c-4.079 6.331-3.348 14.877 2.187 20.412 3.086 3.086 7.192 4.787 11.559 4.787s8.474-1.701 11.559-4.787c3-2.998 4.669-7.007 4.778-11.136a16.22 16.22 0 0 0 11.132-4.778c6.375-6.374 6.375-16.742 0-23.116a16.238 16.238 0 0 0-11.555-4.788zM69.409 80.428a3.466 3.466 0 0 0-4.892 0 9.369 9.369 0 0 1-6.668 2.761 9.37 9.37 0 0 1-6.666-2.761c-3.674-3.676-3.674-9.657.004-13.334 2.394-2.392 5.987-3.318 9.246-2.396a3.465 3.465 0 0 0 3.387-.886 3.452 3.452 0 0 0 .882-3.389 9.45 9.45 0 0 1 2.399-9.244 9.36 9.36 0 0 1 6.664-2.761c2.518 0 4.887.982 6.668 2.761 3.674 3.676 3.674 9.657-.002 13.334a3.46 3.46 0 0 0 0 4.893l14.681 14.681L84.09 95.109 69.409 80.428zm11.017 50.167a3.458 3.458 0 0 0 .002 4.893c3.676 3.678 3.676 9.657 0 13.334a9.369 9.369 0 0 1-6.666 2.757 9.374 9.374 0 0 1-6.666-2.757 9.452 9.452 0 0 1-2.397-9.245 3.459 3.459 0 0 0-.882-3.389 3.464 3.464 0 0 0-3.388-.88c-3.247.918-6.846-.002-9.244-2.399a9.368 9.368 0 0 1-2.761-6.666c0-2.518.982-4.885 2.761-6.662a9.365 9.365 0 0 1 6.664-2.761c2.518 0 4.887.983 6.668 2.761a3.46 3.46 0 0 0 4.893 0l50.165-50.169a3.457 3.457 0 0 0 0-4.893 9.362 9.362 0 0 1-2.759-6.666c0-2.518.982-4.887 2.759-6.666a9.37 9.37 0 0 1 6.664-2.759c2.518 0 4.891.982 6.668 2.759a9.455 9.455 0 0 1 2.396 9.246 3.462 3.462 0 0 0 4.273 4.271c3.255-.92 6.85 0 9.245 2.399a9.347 9.347 0 0 1 2.761 6.662 9.373 9.373 0 0 1-2.761 6.666c-1.778 1.779-4.144 2.759-6.662 2.759s-4.889-.98-6.668-2.759a3.458 3.458 0 0 0-4.893 0l-50.172 50.164zm68.392 2.31c-2.392 2.396-5.989 3.322-9.242 2.399a3.46 3.46 0 0 0-4.269 4.273 9.455 9.455 0 0 1-2.399 9.245 9.373 9.373 0 0 1-6.668 2.757 9.373 9.373 0 0 1-6.664-2.757c-3.674-3.674-3.674-9.657 0-13.336a3.458 3.458 0 0 0 0-4.894l-14.68-14.68 11.021-11.025L130.6 119.57c1.297 1.301 3.595 1.297 4.893 0a9.366 9.366 0 0 1 6.666-2.759 9.37 9.37 0 0 1 6.662 2.759c3.675 3.678 3.675 9.661-.003 13.335z" data-color="1" class="companyName"></path></g></g>
</svg>
</g></svg></svg>